<?xml version="1.0" encoding="utf-8"?>
<!-- Generator: Adobe Illustrator 17.0.0, SVG Export Plug-In . SVG Version: 6.00 Build 0)  -->
<!DOCTYPE svg PUBLIC "-//W3C//DTD SVG 1.1//EN" "http://www.w3.org/Graphics/SVG/1.1/DTD/svg11.dtd">
<svg version="1.1" id="Layer_1" xmlns="http://www.w3.org/2000/svg" xmlns:xlink="http://www.w3.org/1999/xlink" x="0px" y="0px"
	 width="140.813px" height="152.485px" viewBox="0 0 140.813 152.485" enable-background="new 0 0 140.813 152.485"
	 xml:space="preserve">
<g>
	<defs>
		<rect id="SVGID_1_" width="140.812" height="152.485"/>
	</defs>
	<clipPath id="SVGID_2_">
		<use xlink:href="#SVGID_1_"  overflow="visible"/>
	</clipPath>
	<path clip-path="url(#SVGID_2_)" fill="#FFFFFF" d="M37.571,84.408l5.004-9.796l9.518,46.265c0.526,2.555,2.855,4.383,5.413,4.299
		c2.606-0.067,4.791-1.992,5.185-4.57l9.017-58.956l8.022,40.484c0.498,2.514,2.698,4.329,5.262,4.338h0.02
		c2.554,0,4.758-1.794,5.275-4.297l6.76-32.779l3.405,4.136c1.019,1.236,2.536,1.956,4.14,1.961l29.455,0.098
		c0.443,0.118,0.9,0.201,1.38,0.201c2.975,0,5.385-2.411,5.385-5.385C140.812,31.584,109.228,0,70.406,0
		C39.432,0,11.667,20.723,2.885,50.395c-0.843,2.852,0.785,5.848,3.636,6.693c2.853,0.844,5.848-0.784,6.693-3.636
		C20.65,28.322,44.169,10.77,70.406,10.77c30.994,0,56.532,23.77,59.365,54.036l-22.614-0.075l-8.954-10.873
		c-1.319-1.6-3.441-2.3-5.452-1.803c-2.013,0.499-3.561,2.108-3.98,4.14l-3.653,17.717L76.307,29.45
		c-0.5-2.526-2.716-4.339-5.281-4.339c-0.039,0-0.079,0.001-0.119,0.002c-2.614,0.057-4.81,1.984-5.205,4.569l-9.114,59.592
		l-6.555-31.859c-0.46-2.24-2.285-3.944-4.551-4.252c-2.271-0.304-4.479,0.85-5.519,2.887L29.479,76.573H5.385
		c-2.948,0-5.349,2.431-5.385,5.38v0.125c0,38.823,31.584,70.407,70.406,70.407c31.198,0,59.019-20.914,67.656-50.86
		c0.825-2.858-0.823-5.842-3.681-6.667c-2.856-0.825-5.842,0.825-6.666,3.682c-7.316,25.362-30.882,43.075-57.309,43.075
		c-31.111,0-56.734-23.947-59.406-54.371h21.775C34.799,87.344,36.65,86.21,37.571,84.408"/>
</g>
</svg>
