<?xml version="1.0" encoding="utf-8"?>
<!-- Generator: Adobe Illustrator 17.0.0, SVG Export Plug-In . SVG Version: 6.00 Build 0)  -->
<!DOCTYPE svg PUBLIC "-//W3C//DTD SVG 1.1//EN" "http://www.w3.org/Graphics/SVG/1.1/DTD/svg11.dtd">
<svg version="1.1" id="Layer_1" xmlns="http://www.w3.org/2000/svg" xmlns:xlink="http://www.w3.org/1999/xlink" x="0px" y="0px"
	 width="680.294px" height="486.22px" viewBox="0 0 680.294 486.22" enable-background="new 0 0 680.294 486.22"
	 xml:space="preserve">
<text transform="matrix(1 0 0 1 12.4082 437.5716)" fill="#FFFFFF" font-family="'Lato-Regular'" font-size="24">0</text>
<text transform="matrix(1 0 0 1 12.4082 398.7884)" fill="#FFFFFF" font-family="'Lato-Regular'" font-size="24">1</text>
<text transform="matrix(1 0 0 1 12.4082 357.22)" fill="#FFFFFF" font-family="'Lato-Regular'" font-size="24">2</text>
<text transform="matrix(1 0 0 1 12.4082 316.2278)" fill="#FFFFFF" font-family="'Lato-Regular'" font-size="24">3</text>
<text transform="matrix(1 0 0 1 12.4082 274.2278)" fill="#FFFFFF" font-family="'Lato-Regular'" font-size="24">4</text>
<text transform="matrix(1 0 0 1 12.4082 232.2523)" fill="#FFFFFF" font-family="'Lato-Regular'" font-size="24">5</text>
<text transform="matrix(1 0 0 1 12.4082 191.0199)" fill="#FFFFFF" font-family="'Lato-Regular'" font-size="24">6</text>
<text transform="matrix(1 0 0 1 12.4082 148.7796)" fill="#FFFFFF" font-family="'Lato-Regular'" font-size="24">7</text>
<text transform="matrix(1 0 0 1 12.4082 107.308)" fill="#FFFFFF" font-family="'Lato-Regular'" font-size="24">8</text>
<text transform="matrix(1 0 0 1 12.4082 64.5638)" fill="#FFFFFF" font-family="'Lato-Regular'" font-size="24">9</text>
<text transform="matrix(1 0 0 1 59.8081 471.22)" fill="#FFFFFF" font-family="'Lato-Regular'" font-size="24">MON</text>
<text transform="matrix(1 0 0 1 162.0244 471.22)" fill="#FFFFFF" font-family="'Lato-Regular'" font-size="24">TUE</text>
<text transform="matrix(1 0 0 1 250.4883 471.22)" fill="#FFFFFF" font-family="'Lato-Regular'" font-size="24">WED</text>
<text transform="matrix(1 0 0 1 349.7998 471.22)" fill="#FFFFFF" font-family="'Lato-Regular'" font-size="24">THU</text>
<text transform="matrix(1 0 0 1 442.4639 471.22)" fill="#FFFFFF" font-family="'Lato-Regular'" font-size="24">FRI</text>
<text transform="matrix(1 0 0 1 521.7119 471.22)" fill="#FFFFFF" font-family="'Lato-Regular'" font-size="24">S</text>
<text transform="matrix(1 0 0 1 534.4319 471.22)" fill="#FFFFFF" font-family="'Lato-Regular'" font-size="24">A</text>
<text transform="matrix(1 0 0 1 549.1909 471.22)" fill="#FFFFFF" font-family="'Lato-Regular'" font-size="24">T</text>
<text transform="matrix(1 0 0 1 606.168 471.22)" fill="#FFFFFF" font-family="'Lato-Regular'" font-size="24">SUN</text>
<text transform="matrix(1 0 0 1 0 21.2679)" fill="#FFFFFF" font-family="'Lato-Regular'" font-size="24">10</text>
<line fill="none" stroke="#D0D2D3" stroke-width="0.765" stroke-miterlimit="10" x1="38.685" y1="13.811" x2="681.203" y2="13.811"/>
<line fill="none" stroke="#D0D2D3" stroke-width="0.765" stroke-miterlimit="10" x1="37.776" y1="391.3" x2="680.294" y2="391.3"/>
<line fill="none" stroke="#D0D2D3" stroke-width="0.765" stroke-miterlimit="10" x1="37.776" y1="349.605" x2="680.294" y2="349.605"/>
<line fill="none" stroke="#D0D2D3" stroke-width="0.765" stroke-miterlimit="10" x1="37.776" y1="307.91" x2="680.294" y2="307.91"/>
<line fill="none" stroke="#D0D2D3" stroke-width="0.765" stroke-miterlimit="10" x1="37.776" y1="266.215" x2="680.294" y2="266.215"/>
<line fill="none" stroke="#D0D2D3" stroke-width="0.765" stroke-miterlimit="10" x1="37.776" y1="224.52" x2="680.294" y2="224.52"/>
<line fill="none" stroke="#D0D2D3" stroke-width="0.765" stroke-miterlimit="10" x1="37.776" y1="182.826" x2="680.294" y2="182.826"/>
<line fill="none" stroke="#D0D2D3" stroke-width="0.765" stroke-miterlimit="10" x1="37.776" y1="141.131" x2="680.294" y2="141.131"/>
<line fill="none" stroke="#D0D2D3" stroke-width="0.765" stroke-miterlimit="10" x1="37.776" y1="55.506" x2="680.294" y2="55.506"/>
<line fill="none" stroke="#D0D2D3" stroke-width="0.765" stroke-miterlimit="10" x1="38.685" y1="432.994" x2="681.203" y2="432.994"/>
<rect x="74.501" y="171.331" fill="#FFFFFF" width="30" height="261.54"/>
<rect x="254.784" y="150.639" fill="#FFFFFF" width="30" height="282.231"/>
<rect x="344.925" y="119.385" fill="#FFFFFF" width="30" height="313.485"/>
<rect x="435.067" y="140.399" fill="#FFFFFF" width="30" height="292.471"/>
<rect x="615.349" y="118.318" fill="#FFFFFF" width="30" height="314.552"/>
<line fill="none" stroke="#D0D2D3" stroke-width="3" stroke-miterlimit="10" stroke-dasharray="10,14" x1="36.669" y1="98.319" x2="679.984" y2="98.319"/>
<rect x="164.643" y="76.775" fill="#FFFFFF" width="30" height="356.095"/>
<rect x="525.207" y="54.65" fill="#FFFFFF" width="30" height="378.221"/>
</svg>
